<?xml version="1.0" encoding="UTF-8"?><svg xmlns="http://www.w3.org/2000/svg" viewBox="0 0 295.6 42.6"><defs><style>.d{fill:none;}.e{fill:#001a47;}</style></defs><g id="a"/><g id="b"><g id="c"><rect class="d" width="295.5" height="42.6"/><path class="e" d="M19.5,42.6H3.6c-2,0-3.6-1.6-3.6-3.6V18.8c0-2,1.6-3.6,3.6-3.6H19.9c3.3,0,6.1,2.7,6.2,6,.1,3.4-2.7,6.2-6.1,6.2h-4.9c-.6-2.1-2.7-3.6-5-3.4-2.3,.2-4.2,2.1-4.4,4.4-.2,2.8,2,5.2,4.8,5.2,2.2,0,4-1.4,4.6-3.4h4.7c4.9,0,9-3.9,9-8.8s-4-9-8.9-9H3.6c-2,0-3.6-1.6-3.6-3.6V3.6C0,1.6,1.6,0,3.6,0H19.8c11.7,0,21.5,9.6,21.5,21.3s-9.6,21.3-21.3,21.3h-.5Z"/><path class="e" d="M71.9,3.6v5.2c0,2-1.6,3.6-3.6,3.6h-10.8c-.7-2.1-2.7-3.5-5-3.3-2.3,.2-4.2,2.1-4.4,4.4-.2,2.8,2,5.2,4.8,5.2,2.2,0,4-1.5,4.6-3.5h3.6c2,0,3.6,1.6,3.6,3.6v5.6c0,2-1.6,3.6-3.6,3.6h-11.3v11c0,2-1.6,3.6-3.6,3.6h-14.9c2.1-1.1,4.1-2.6,5.8-4.3,4.5-4.6,7-10.8,7-17.2s-2.6-12.3-7.1-16.8c-1.7-1.7-3.7-3.1-5.7-4.3h37c2,0,3.6,1.6,3.6,3.6Z"/><path class="e" d="M96.8,8.2c2.6,0,5,.5,6.9,1.5,2,1,3.6,2.5,4.6,4.4,1.1,1.9,1.7,4.1,1.7,6.6s-.6,4.7-1.7,6.6c-1.1,1.9-2.6,3.3-4.6,4.4-2,1-4.3,1.5-6.9,1.5h-8.8V8.2h8.8Zm-.2,20.8c2.6,0,4.7-.7,6.1-2.2,1.4-1.5,2.2-3.5,2.2-6.1s-.7-4.7-2.2-6.1c-1.4-1.5-3.5-2.2-6.1-2.2h-3.6V29h3.6Zm15.9-5.7c0-2,.4-3.8,1.2-5.4,.8-1.6,1.9-2.8,3.3-3.6s2.9-1.3,4.6-1.3c1.5,0,2.8,.3,3.9,.9,1.1,.6,2,1.4,2.7,2.3v-2.8h5.1v19.9h-5.1v-2.9c-.6,.9-1.5,1.7-2.7,2.3-1.1,.6-2.4,.9-3.9,.9-1.7,0-3.2-.4-4.6-1.3-1.4-.9-2.5-2.1-3.3-3.6-.8-1.6-1.2-3.4-1.2-5.4Zm15.7,0c0-1.2-.2-2.3-.7-3.1-.5-.9-1.1-1.6-1.9-2-.8-.5-1.7-.7-2.6-.7s-1.8,.2-2.6,.7c-.8,.5-1.4,1.1-1.9,2-.5,.9-.7,1.9-.7,3.1s.2,2.3,.7,3.2,1.2,1.6,1.9,2.1c.8,.5,1.7,.7,2.6,.7s1.8-.2,2.6-.7c.8-.5,1.5-1.2,1.9-2,.4-1,.7-2,.7-3.3Zm15.9-5.8v9.6c0,.7,.2,1.2,.5,1.5,.3,.3,.9,.4,1.7,.4h2.3v4.2h-3.2c-4.2,0-6.4-2.1-6.4-6.2v-9.6h-2.4v-4.1h2.4v-4.9h5.1v4.9h4.5v4.1h-4.5v.1Zm6.7,5.8c0-2,.4-3.8,1.2-5.4s1.9-2.8,3.3-3.6c1.4-.8,2.9-1.3,4.6-1.3,1.5,0,2.8,.3,3.9,.9,1.1,.6,2,1.4,2.7,2.3v-2.8h5.1v19.9h-5.1v-2.9c-.6,.9-1.5,1.7-2.7,2.3-1.1,.6-2.4,.9-3.9,.9-1.7,0-3.2-.4-4.6-1.3-1.4-.9-2.5-2.1-3.3-3.6-.8-1.6-1.2-3.4-1.2-5.4Zm15.7,0c0-1.2-.2-2.3-.7-3.1-.5-.9-1.1-1.6-1.9-2-.8-.5-1.7-.7-2.6-.7s-1.8,.2-2.6,.7-1.4,1.1-1.9,2c-.5,.9-.7,1.9-.7,3.1s.2,2.3,.7,3.2,1.2,1.6,1.9,2.1c.8,.5,1.7,.7,2.6,.7s1.8-.2,2.6-.7c.8-.5,1.5-1.2,1.9-2,.5-1,.7-2,.7-3.3Zm34.1-15.1v4.1h-10.5v6.4h8v4h-8v10.6h-5V8.2h15.5Zm2.3,15.1c0-2,.4-3.8,1.2-5.4,.8-1.6,1.9-2.8,3.3-3.6,1.4-.8,2.9-1.3,4.6-1.3,1.5,0,2.8,.3,3.9,.9,1.1,.6,2,1.4,2.7,2.3v-2.8h5.1v19.9h-5.1v-2.9c-.6,.9-1.5,1.7-2.7,2.3-1.1,.6-2.4,.9-3.9,.9-1.7,0-3.2-.4-4.6-1.3-1.4-.9-2.5-2.1-3.3-3.6-.8-1.6-1.2-3.4-1.2-5.4Zm15.7,0c0-1.2-.2-2.3-.7-3.1-.5-.9-1.1-1.6-1.9-2-.8-.5-1.7-.7-2.6-.7s-1.8,.2-2.6,.7-1.4,1.1-1.9,2c-.5,.9-.7,1.9-.7,3.1s.2,2.3,.7,3.2,1.2,1.6,1.9,2.1c.8,.5,1.7,.7,2.6,.7s1.8-.2,2.6-.7,1.5-1.2,1.9-2c.5-1,.7-2,.7-3.3Zm15-7c.6-1,1.5-1.7,2.7-2.3s2.5-.9,3.9-.9c1.7,0,3.2,.4,4.6,1.3,1.4,.8,2.5,2,3.3,3.6,.8,1.5,1.2,3.3,1.2,5.4s-.4,3.9-1.2,5.4c-.8,1.6-1.9,2.8-3.3,3.6-1.4,.9-2.9,1.3-4.6,1.3-1.5,0-2.8-.3-3.9-.9-1.1-.6-2-1.4-2.7-2.3v2.8h-5V6.7h5v9.6Zm10.6,7c0-1.2-.3-2.2-.8-3.1-.5-.9-1.1-1.6-1.9-2-.8-.5-1.7-.7-2.6-.7s-1.8,.2-2.6,.7-1.4,1.1-1.9,2c-.5,.9-.7,1.9-.7,3.1s.2,2.2,.7,3.1,1.2,1.6,1.9,2.1c.8,.5,1.7,.7,2.6,.7s1.8-.2,2.6-.7,1.5-1.2,1.9-2.1c.5-.9,.8-1.9,.8-3.1Zm13.8-6.8c.6-1.1,1.5-1.9,2.5-2.5,1.1-.6,2.3-.9,3.6-.9v5.3h-1.3c-1.6,0-2.8,.4-3.6,1.1-.8,.7-1.2,2-1.2,3.9v9.9h-5V13.4h5v3.1Zm12.1-5.5c-.9,0-1.6-.3-2.2-.8-.6-.6-.9-1.3-.9-2.2s.3-1.5,.9-2.1,1.3-.9,2.2-.9,1.6,.3,2.2,.9c.6,.6,.9,1.2,.9,2.1s-.3,1.5-.9,2.1c-.6,.6-1.3,.9-2.2,.9Zm2.5,2.4v19.9h-5V13.4h5Zm3.7,9.9c0-2.1,.4-3.9,1.3-5.4,.8-1.6,2-2.8,3.5-3.6,1.5-.9,3.2-1.3,5.1-1.3,2.5,0,4.5,.6,6.1,1.9,1.6,1.2,2.7,3,3.3,5.2h-5.4c-.3-.9-.8-1.5-1.5-2-.7-.5-1.5-.8-2.5-.8-1.4,0-2.6,.5-3.4,1.6-.8,1-1.3,2.5-1.3,4.4s.4,3.4,1.3,4.4c.8,1,2,1.5,3.4,1.5,2,0,3.4-.9,4-2.7h5.4c-.6,2.2-1.6,3.9-3.3,5.1-1.6,1.3-3.7,1.9-6.1,1.9-1.9,0-3.6-.4-5.1-1.3-1.5-.9-2.7-2.1-3.5-3.6-.9-1.4-1.3-3.2-1.3-5.3Z"/></g></g></svg>