<svg xmlns="http://www.w3.org/2000/svg" xmlns:xlink="http://www.w3.org/1999/xlink" fill="#000000"
  height="800px" width="800px" version="1.1" id="Capa_1" viewBox="0 0 283.581 283.581"
  xml:space="preserve">
  <path d="M281.384,112.941l-76.8-76.811c-1.406-1.407-3.314-2.197-5.304-2.197c-1.989,0-3.897,0.791-5.304,2.197l-37.244,37.248  c-0.003,0.003-0.006,0.007-0.009,0.01l-17.398,17.398l-12.519-12.519c-0.027-0.028-0.051-0.059-0.078-0.086L89.492,40.935  c-1.406-1.407-3.313-2.197-5.303-2.197c-0.001,0-0.001,0-0.001,0c-1.989,0-3.896,0.79-5.304,2.197L2.197,117.622  c-2.929,2.929-2.929,7.677,0,10.606l37.244,37.249c1.406,1.407,3.314,2.197,5.304,2.197s3.897-0.791,5.304-2.197l7.436-7.436  l7.292,7.292l-5.004,5.004c-2.928,2.928-2.929,7.676-0.001,10.605l60.434,60.456c1.407,1.407,3.315,2.198,5.306,2.198  c1.99,0,3.898-0.791,5.305-2.199l5.001-5.005l11.058,11.059c1.406,1.406,3.314,2.197,5.304,2.197c1.989,0,3.896-0.79,5.304-2.197  l28.128-28.129c0.021-0.021,0.044-0.038,0.064-0.058c0.021-0.02,0.037-0.043,0.059-0.064l17.791-17.792  c0.007-0.007,0.015-0.013,0.021-0.02c0.007-0.007,0.013-0.015,0.02-0.022l17.872-17.873c1.406-1.407,2.196-3.314,2.196-5.304  c0-1.99-0.791-3.897-2.197-5.304l-11.061-11.058l12.103-12.114l11.07,11.067c1.465,1.464,3.384,2.196,5.303,2.196  c1.919,0,3.839-0.732,5.304-2.197l37.23-37.234C284.313,120.617,284.313,115.869,281.384,112.941z M18.107,122.926l66.081-66.081  l26.632,26.638l-5.016,5.016l-53.627,53.63c-0.012,0.012-0.021,0.024-0.032,0.036l-7.4,7.401L18.107,122.926z M125.508,225.486  L75.681,175.64l4.984-4.986c0.007-0.006,0.014-0.012,0.021-0.018c0.007-0.006,0.012-0.014,0.019-0.02l4.974-4.975l49.832,49.833  L125.508,225.486z M152.177,231.541l-5.76-5.76l5.003-5.007c2.927-2.929,2.926-7.676-0.002-10.604l-60.437-60.438  c-1.407-1.407-3.314-2.197-5.304-2.197c-1.989,0-3.897,0.791-5.304,2.197l-4.993,4.994l-7.292-7.292l42.439-42.445l10.893-10.894  l7.297,7.297l-30.779,30.779c-1.407,1.407-2.197,3.314-2.197,5.304c0,1.989,0.791,3.897,2.197,5.304l24.139,24.131  c1.407,1.406,3.314,2.196,5.303,2.196h0.002c1.989-0.001,3.896-0.791,5.303-2.198l30.759-30.774l31.013,31.011  c0.063,0.062,0.131,0.117,0.195,0.177l10.873,10.87l-7.284,7.284l-18.934-18.94c-2.927-2.93-7.676-2.93-10.606-0.002  c-2.929,2.929-2.93,7.677-0.001,10.606l18.936,18.942l-7.268,7.27l-18.939-18.938c-2.928-2.929-7.677-2.928-10.606,0.001  c-2.929,2.929-2.929,7.678,0.001,10.607l18.938,18.936L152.177,231.541z M211.863,139.114l-12.099,12.109l-2.572-2.572  c-0.059-0.059-0.123-0.109-0.184-0.165l-28.265-28.263c-1.406-1.407-3.314-2.197-5.304-2.197c-1.989,0-3.898,0.791-5.304,2.198  l-30.759,30.775l-13.529-13.525l30.767-30.766c0.004-0.004,0.009-0.007,0.013-0.011c0.004-0.004,0.008-0.008,0.012-0.012  l17.398-17.397l6.727,6.725L211.863,139.114z M238.849,144.871L181.595,87.63l-8.951-8.951l26.637-26.639l66.194,66.203  L238.849,144.871z"/>
  </svg>